<?xml version="1.0" encoding="UTF-8"?>
<svg version="1.1" xmlns="http://www.w3.org/2000/svg" width="10417" height="10417">
<path d="M0 0 C1.57449669 -0.00628418 1.57449669 -0.00628418 3.18080139 -0.01269531 C6.57760469 -0.02239234 9.97427892 -0.02248241 13.37109375 -0.01953125 C14.56313416 -0.01925934 15.75517456 -0.01898743 16.9833374 -0.01870728 C128.79233453 0.09645336 240.60865008 10.91899004 723.80859375 154.16796875 C724.50716492 154.48749512 725.20573608 154.80702148 725.92547607 155.13623047 C744.9853325 163.86076109 763.79931826 173.06632287 782.55859375 182.41796875 C783.55590515 182.91394562 784.55321655 183.40992249 785.58074951 183.92092896 C799.01760721 190.61188978 812.26961177 197.58205318 825.4074707 204.84228516 C828.16836104 206.3665998 830.93547037 207.87925976 833.70372009 209.39015198 C864.91348737 226.43418058 895.50332148 244.54697738 925.47607422 263.68457031 C927.93612029 265.24907104 930.40478122 266.79927247 932.875 268.34765625 C961.2448245 286.18183151 988.74343442 305.42073086 1015.80859375 325.16796875 C1016.56462891 325.7192041 1017.32066406 326.27043945 1018.09960938 326.83837891 C1041.87477902 344.19905985 1065.29491378 362.07706869 1088.06445312 380.73974609 C1089.63768299 382.02801523 1091.21507623 383.311196 1092.79296875 384.59375 C1099.31783025 389.90227171 1105.74614191 395.31874712 1112.15576172 400.76513672 C1114.31298648 402.59606929 1116.47511984 404.4211524 1118.63720703 406.24633789 C1120.80577578 408.07826842 1122.97136768 409.91369227 1125.13623047 411.75 C1126.26740995 412.7091081 1127.39926502 413.66741989 1128.53173828 414.625 C1136.16177545 421.08167673 1143.61153819 427.68782492 1150.92578125 434.5 C1153.19094968 436.59635506 1155.47373942 438.65061553 1157.80859375 440.66796875 C1162.98074787 445.14906261 1167.97793833 449.82207623 1172.99072266 454.47949219 C1174.23170012 455.63213793 1175.47360327 456.78378765 1176.71630859 457.93457031 C1190.34968299 470.55971071 1190.34968299 470.55971071 1196.5859375 477.0078125 C1198.49512128 478.86331097 1200.44516656 480.59249199 1202.46289062 482.32666016 C1206.66155906 485.99112771 1210.62906012 489.84353278 1214.5625 493.7890625 C1215.26704819 494.49265396 1215.97159637 495.19624542 1216.69749451 495.92115784 C1218.17512742 497.39811523 1219.65151832 498.87631617 1221.12670898 500.35571289 C1223.36525856 502.5996196 1225.60909848 504.83813579 1227.85351562 507.07617188 C1229.29849779 508.52181493 1230.74316967 509.9677682 1232.1875 511.4140625 C1233.17841393 512.40194008 1233.17841393 512.40194008 1234.18934631 513.40977478 C1238.03502068 517.27455923 1241.69771972 521.24555698 1245.24620056 525.38539124 C1247.63695471 528.11306863 1250.21064879 530.63948756 1252.80859375 533.16796875 C1256.7261072 536.98073585 1260.38431315 540.93167128 1263.9609375 545.06640625 C1267.14709753 548.69041068 1270.48397578 552.17138778 1273.80859375 555.66796875 C1278.39444601 560.49102027 1282.89849834 565.35769123 1287.25878906 570.38623047 C1289.19884216 572.61661917 1291.18909678 574.79874888 1293.18359375 576.98046875 C1297.1323082 581.35082559 1300.85486585 585.87099954 1304.55859375 590.44921875 C1306.74360944 593.08944604 1309.00030766 595.63526595 1311.30859375 598.16796875 C1315.1739272 602.41448561 1318.82257621 606.79809985 1322.43359375 611.26171875 C1324.97524648 614.37189907 1327.57464035 617.42689089 1330.18359375 620.48046875 C1334.43179685 625.46826153 1338.52227567 630.55918324 1342.54467773 635.73022461 C1345.51288035 639.53975805 1348.53491729 643.29859209 1351.59741211 647.03271484 C1357.45057632 654.16953612 1363.08114626 661.43293485 1368.58203125 668.84375 C1371.57912227 672.87713926 1374.63045329 676.86747463 1377.68725586 680.85571289 C1385.58347639 691.16209252 1393.28519148 701.58674566 1400.80859375 712.16796875 C1401.29215332 712.84714355 1401.77571289 713.52631836 1402.27392578 714.22607422 C1405.25337878 718.4158356 1408.21486105 722.61790152 1411.16601562 726.82763672 C1412.3032315 728.44793271 1413.44270681 730.06664438 1414.58398438 731.68408203 C1441.53327523 769.88576004 1466.67566647 809.52055446 1490.00048828 850.02832031 C1491.2412 852.18272926 1492.48450126 854.33564835 1493.72998047 856.48730469 C1503.78534954 873.8617531 1513.45836821 891.40152223 1522.80859375 909.16796875 C1523.37223633 910.23740723 1523.93587891 911.3068457 1524.51660156 912.40869141 C1528.66685317 920.30142937 1532.75697734 928.22423873 1536.80859375 936.16796875 C1537.16693298 936.87026611 1537.52527222 937.57256348 1537.89447021 938.29614258 C1548.50515739 959.11215842 1558.73083557 980.05037558 1568.23156738 1001.3971405 C1570.12520699 1005.65092311 1572.04869876 1009.88976172 1573.9921875 1014.12109375 C1616.17801895 1106.30421585 1648.11037777 1203.67548068 1700.80859375 1961.16796875 C1700.66033142 1962.16195679 1700.51206909 1963.15594482 1700.35931396 1964.18005371 C1687.57102816 2049.61312541 1667.61267467 2133.75590102 1641.80859375 2216.16796875 C1641.55225159 2216.98920227 1641.29590942 2217.81043579 1641.03179932 2218.65655518 C1615.66379715 2299.8595765 1583.43314262 2378.88635238 1545.80859375 2455.16796875 C1545.415047 2455.96601929 1545.02150024 2456.76406982 1544.61602783 2457.58630371 C1524.55624874 2498.23118417 1524.55624874 2498.23118417 1514.33544922 2516.43066406 C1512.5675303 2519.6001407 1510.8294538 2522.78548064 1509.09375 2525.97265625 C1500.59424936 2541.55518328 1491.77667509 2556.90457647 1482.63671875 2572.12158203 C1480.93674856 2574.95441163 1479.24583094 2577.79238627 1477.55859375 2580.6328125 C1471.32531911 2591.10859345 1464.90899076 2601.4550775 1458.35498047 2611.73291016 C1456.80925486 2614.16692771 1455.27812599 2616.60958899 1453.75 2619.0546875 C1434.6337796 2649.53083722 1414.00155864 2679.10673194 1392.80859375 2708.16796875 C1392.24672363 2708.93995605 1391.68485352 2709.71194336 1391.10595703 2710.50732422 C1383.05873919 2721.55096731 1374.80310281 2732.40807676 1366.37353516 2743.16210938 C1364.14207732 2746.02227437 1361.94536551 2748.90797898 1359.74609375 2751.79296875 C1354.89788134 2758.11082051 1349.87832028 2764.28262486 1344.83984375 2770.44921875 C1342.43009576 2773.39908266 1340.04888794 2776.36976953 1337.68359375 2779.35546875 C1334.18873236 2783.74060009 1330.57444182 2788.01672277 1326.94042969 2792.28637695 C1324.06209954 2795.6720351 1321.23042494 2799.08926712 1318.43359375 2802.54296875 C1310.51105807 2812.26866219 1302.20696854 2821.68194421 1293.78515625 2830.9765625 C1291.93902814 2833.02335671 1290.11866091 2835.08928432 1288.30859375 2837.16796875 C1281.10262219 2845.43169761 1273.69051112 2853.51107434 1266.26757812 2861.57958984 C1264.77308511 2863.20662658 1263.28283233 2864.83747402 1261.79296875 2866.46875 C1256.41452139 2872.34366943 1250.97174017 2878.10187354 1245.2578125 2883.65625 C1243.31072839 2885.65302047 1241.49879706 2887.67092315 1239.68652344 2889.78564453 C1235.7410457 2894.30840772 1231.56088346 2898.55998688 1227.3125 2902.796875 C1226.52012436 2903.59020737 1225.72774872 2904.38353973 1224.91136169 2905.20091248 C1223.24609092 2906.86685956 1221.57957346 2908.53156131 1219.91186523 2910.19506836 C1217.37824753 2912.72333009 1214.85001208 2915.25688536 1212.32226562 2917.79101562 C1210.69433092 2919.41828945 1209.066086 2921.045253 1207.4375 2922.671875 C1206.69141983 2923.4199794 1205.94533966 2924.1680838 1205.176651 2924.93885803 C1201.09802084 2928.99957147 1196.9345627 2932.89485956 1192.56040955 2936.63633728 C1189.84083853 2939.01408759 1187.3268089 2941.58057186 1184.80859375 2944.16796875 C1180.98584717 2948.09573584 1177.02454544 2951.76550578 1172.87890625 2955.3515625 C1169.43967584 2958.3690005 1166.12981059 2961.5218942 1162.80859375 2964.66796875 C1155.38361052 2971.70140013 1147.71716062 2978.41136531 1139.93359375 2985.04296875 C1135.77652686 2988.59198208 1131.66283873 2992.17470897 1127.62109375 2995.85546875 C1123.45786949 2999.6328332 1119.15151484 3003.19224143 1114.78125 3006.7265625 C1111.47107961 3009.44516499 1108.23364745 3012.23882011 1104.99609375 3015.04296875 C1099.86363777 3019.4757034 1094.62475216 3023.72944004 1089.26586914 3027.88452148 C1084.57570065 3031.53199802 1080.00020798 3035.30496074 1075.43359375 3039.10546875 C1069.38284393 3044.12665142 1063.22307687 3048.94717727 1056.90332031 3053.62426758 C1051.76341554 3057.43125399 1046.71607682 3061.34537054 1041.68359375 3065.29296875 C1034.80166635 3070.6758769 1027.80240326 3075.83240287 1020.65722656 3080.85791016 C1017.94081088 3082.7829348 1015.24863618 3084.74089909 1012.55490112 3086.69747925 C995.89443665 3098.78539099 978.98016152 3110.49863246 961.91699219 3122.01000977 C959.17494409 3123.86130859 956.43706256 3125.71866291 953.69921875 3127.57617188 C943.16639343 3134.69982555 932.50592632 3141.5240024 921.60986328 3148.07736206 C917.9879566 3150.27030187 914.43312876 3152.56725657 910.87109375 3154.85546875 C898.69977482 3162.59616454 886.25690508 3169.88495375 873.80859375 3177.16796875 C872.69967773 3177.81733398 871.59076172 3178.46669922 870.44824219 3179.13574219 C856.22284693 3187.44895721 841.87318576 3195.48637611 827.34448242 3203.2565918 C824.60941324 3204.72757573 821.89012035 3206.22570019 819.1730957 3207.72973633 C804.75519153 3215.6922893 790.12180805 3223.19206795 775.38342285 3230.53948212 C773.4645753 3231.49618326 771.54634599 3232.45411594 769.62817383 3233.41217041 C751.41319024 3242.50441101 733.13184803 3251.38022542 714.48144531 3259.54931641 C711.35657554 3260.92075579 708.247036 3262.3238229 705.14099121 3263.73730469 C669.34785594 3280.02190476 632.65241165 3294.7633872 595.56787109 3307.84130859 C592.84703095 3308.80150117 590.12877607 3309.76752995 587.41259766 3310.74072266 C483.7679677 3347.86143177 376.46331283 3375.01400908 109.55859375 3406.85546875 C107.92849869 3406.94674042 107.92849869 3406.94674042 106.26547241 3407.03985596 C59.76073149 3409.6071879 13.41537872 3409.16796875 -33.19140625 3409.16796875 C-33.19140625 3143.51796875 -33.19140625 2877.86796875 -33.19140625 2604.16796875 C1.45859375 2603.67296875 1.45859375 2603.67296875 36.80859375 2603.16796875 C130.27621122 2599.82983955 221.3271729 2584.02642932 311.85986328 2552.83990479 C313.66077137 2552.21893895 315.46313531 2551.60219967 317.265625 2550.98583984 C345.12494547 2541.42315386 372.22098625 2529.8118532 398.80859375 2517.16796875 C401.08591545 2516.09630732 403.3632597 2515.02469378 405.640625 2513.953125 C419.1269067 2507.57029014 432.33648644 2500.82374001 445.35498047 2493.53515625 C447.62382813 2492.27092273 449.90240859 2491.02753331 452.1875 2489.79296875 C472.47059802 2478.78994838 491.99703781 2466.53115966 511.18359375 2453.73046875 C511.86511505 2453.27619507 512.54663635 2452.82192139 513.24880981 2452.35388184 C542.11557389 2433.07588855 569.68172531 2412.12120191 596.10400391 2389.61816406 C597.82978704 2388.14993836 599.55933647 2386.68623342 601.2890625 2385.22265625 C608.65987784 2378.96714144 615.83762618 2372.5458135 622.89477539 2365.93823242 C624.33685064 2364.60432662 625.79133905 2363.28382206 627.25170898 2361.9699707 C635.86453577 2354.18875781 644.08763702 2346.04171879 652.28295898 2337.82397461 C654.63086431 2335.47067575 656.98411343 2333.12281485 659.33789062 2330.77539062 C660.85578972 2329.25683117 662.37337881 2327.73796179 663.890625 2326.21875 C664.58243362 2325.52896561 665.27424225 2324.83918121 665.98701477 2324.12849426 C669.90267048 2320.1941788 673.64483925 2316.16077248 677.26350403 2311.95117188 C679.66225987 2309.18274434 682.17796767 2306.52675955 684.68359375 2303.85546875 C689.14363731 2299.06147735 693.37168928 2294.14285879 697.47265625 2289.03515625 C700.14734391 2285.75217842 702.91078723 2282.55543736 705.68359375 2279.35546875 C711.09361472 2273.08418063 716.24558681 2266.64471443 721.31201172 2260.09423828 C722.92697974 2258.01559265 724.5562463 2255.94869885 726.1875 2253.8828125 C733.54039728 2244.54536458 740.5611126 2235.0402787 747.33642578 2225.27685547 C748.82233552 2223.14828361 750.32590864 2221.03339303 751.8359375 2218.921875 C758.23796767 2209.96170929 764.38732813 2200.87799255 770.28222656 2191.57617188 C771.34888149 2189.89327293 772.41881043 2188.21244664 773.49121094 2186.53320312 C818.74263942 2115.61196375 854.16462109 2038.47237274 912.80859375 1751.16796875 C912.89536377 1749.5444751 912.89536377 1749.5444751 912.98388672 1747.88818359 C917.41396101 1661.50830766 908.33019846 1574.82281717 806.203125 1278.65576172 C804.73788368 1276.04182456 803.31562653 1273.4079927 801.90234375 1270.765625 C794.67477845 1257.26525863 786.9109788 1244.16033949 778.80859375 1231.16796875 C778.23882813 1230.25015625 777.6690625 1229.33234375 777.08203125 1228.38671875 C768.12082634 1213.9833209 758.62393591 1200.00131675 748.80859375 1186.16796875 C748.23222168 1185.35312012 747.65584961 1184.53827148 747.06201172 1183.69873047 C735.42131615 1167.27465545 723.00526496 1151.49052796 710.24560547 1135.92529297 C708.92845715 1134.31454992 707.62003302 1132.69668309 706.3125 1131.078125 C701.99541975 1125.74350071 697.54525745 1120.57503008 692.92578125 1115.5 C691.02808206 1113.40972986 689.1612596 1111.2981076 687.30859375 1109.16796875 C683.19545874 1104.45245241 679.01183024 1099.8032177 674.80859375 1095.16796875 C673.98157959 1094.254104 673.15456543 1093.34023926 672.30249023 1092.39868164 C664.51822436 1083.85312492 656.42852039 1075.63358655 648.24365234 1067.47265625 C646.04407303 1065.27848373 643.84995368 1063.07895152 641.65625 1060.87890625 C640.23339375 1059.45671019 638.81022766 1058.03482404 637.38671875 1056.61328125 C636.74381897 1055.96835724 636.10091919 1055.32343323 635.4385376 1054.65896606 C631.62016969 1050.85996911 627.69129309 1047.24324792 623.6084137 1043.72967529 C620.83578159 1041.32385814 618.17293204 1038.80411612 615.49609375 1036.29296875 C610.62273826 1031.75448351 605.60555398 1027.47448078 600.41015625 1023.3046875 C597.85872646 1021.20914381 595.42532602 1019.0283372 592.99609375 1016.79296875 C587.43652391 1011.73402368 581.54232864 1007.15795672 575.60107422 1002.56201172 C573.88111098 1001.22436665 572.17286534 999.87337953 570.46875 998.515625 C520.07375132 958.41105292 464.82262701 924.57771949 407.03417969 896.26220703 C405.44648825 895.48159788 403.86148511 894.69551104 402.27832031 893.90576172 C374.29365511 879.96324162 345.28404105 868.14679585 315.77044678 857.85229492 C314.43997545 857.38820493 313.10995139 856.92283108 311.78033447 856.45629883 C275.15998539 843.61068231 237.81232338 833.05456495 199.80859375 825.16796875 C199.08254944 825.0171283 198.35650513 824.86628784 197.60845947 824.71087646 C121.27406457 808.9368479 44.59349291 804.57513878 -33.19140625 807.16796875 C-33.19140625 541.18796875 -33.19140625 275.20796875 -33.19140625 1.16796875 C-8.90821749 0.01162643 -8.90821749 0.01162643 0 0 Z " fill="#424241" transform="translate(5193.19140625,4307.83203125)"/>
<path d="M0 0 C458.37 0 916.74 0 1389 0 C1389 265.65 1389 531.3 1389 805 C1196.28 805 1003.56 805 805 805 C805.11601562 859.28757812 805.23203125 913.57515625 805.3515625 969.5078125 C805.39958007 1001.750676 805.4469216 1033.99351168 805.48164964 1066.23638773 C805.50206238 1085.14063864 805.52294197 1104.04488895 805.54525994 1122.94913772 C805.54795833 1125.23584397 805.55064205 1127.52255024 805.55331089 1129.80925652 C805.59600359 1166.28461111 805.67105934 1202.759811 805.76297221 1239.23507203 C805.85724038 1276.71296891 805.91884097 1314.19078021 805.9391499 1351.66879365 C805.94203158 1356.95842445 805.94528796 1362.24805496 805.94877243 1367.53768539 C805.94944666 1368.57879317 805.95012089 1369.61990094 805.95081555 1370.69255744 C805.96264744 1387.47312481 806.00906727 1404.25342807 806.06832034 1421.0338876 C806.12710935 1437.8909278 806.14970091 1454.74770534 806.13501377 1471.60484453 C806.12738939 1481.62865388 806.14784748 1491.65150424 806.20797543 1501.67514099 C806.24537125 1508.36433343 806.24671113 1515.05289524 806.21831814 1521.74213058 C806.20316461 1525.55832963 806.2040804 1529.37271089 806.24883182 1533.18871774 C806.29661674 1537.29445027 806.26754015 1541.39599205 806.23047829 1545.50183296 C806.25674842 1546.694143 806.28301856 1547.88645303 806.31008476 1549.11489367 C806.2430385 1552.37531795 806.10066242 1554.92848156 805 1558 C801.97929787 1560.81001644 798.77147447 1562.39683054 795 1564 C793.86731689 1564.61109619 792.73463379 1565.22219238 791.56762695 1565.85180664 C790.55144287 1566.36606201 789.53525879 1566.88031738 788.48828125 1567.41015625 C787.33054199 1568.00054688 786.17280273 1568.5909375 784.97998047 1569.19921875 C784.38231873 1569.50263184 783.78465698 1569.80604492 783.16888428 1570.11865234 C771.54359593 1576.02933651 760.11327135 1582.2097944 748.796875 1588.6953125 C743.58242024 1591.68294745 738.32494947 1594.58762345 733.05932617 1597.48388672 C719.93963534 1604.70825049 707.04140066 1612.23974361 694.24804688 1620.02587891 C690.83171869 1622.10227921 687.40865075 1624.16721876 683.984375 1626.23046875 C656.73331917 1642.66361136 630.22433511 1660.10264647 603.7824707 1677.80200195 C600.10385523 1680.26362011 596.4199154 1682.71707671 592.73342896 1685.16688538 C586.50063451 1689.31065094 580.30906195 1693.50562519 574.1875 1697.8125 C573.34840088 1698.40160156 572.50930176 1698.99070313 571.64477539 1699.59765625 C563.03943096 1705.65317914 554.49964712 1711.79715942 546 1718 C545.22269531 1718.5671875 544.44539063 1719.134375 543.64453125 1719.71875 C532.96644218 1727.52263891 522.39385099 1735.45316491 511.91650391 1743.52441406 C510.1274425 1744.9018774 508.33580198 1746.27588885 506.54296875 1747.6484375 C494.4441655 1756.91725929 482.50393511 1766.36524899 470.69140625 1775.99609375 C467.70356942 1778.43116179 464.70152967 1780.84737413 461.6875 1783.25 C448.39260759 1793.86375577 435.44482984 1804.87616445 422.54296875 1815.9609375 C420.17621475 1817.99369224 417.80352816 1820.01917916 415.42578125 1822.0390625 C408.71396575 1827.74893597 402.1332617 1833.56758744 395.6640625 1839.55078125 C393.46909223 1841.56873779 391.2533379 1843.54803445 389 1845.5 C385.11715152 1848.86728353 381.3348372 1852.34096091 377.55371094 1855.82128906 C374.47339663 1858.65502411 371.37314411 1861.46335627 368.25 1864.25 C358.38582226 1873.11185 348.64542816 1882.14127548 339.40625 1891.65625 C337.4696126 1893.54258513 335.50934283 1895.29258657 333.45727539 1897.04711914 C328.52108461 1901.35445226 323.90273459 1905.95350795 319.27734375 1910.58984375 C318.37303116 1911.49319962 317.46871857 1912.39655548 316.53700256 1913.32728577 C314.63565057 1915.22796068 312.73532447 1917.12959608 310.83666992 1919.03295898 C308.42414139 1921.45118392 306.00714919 1923.86488958 303.58878231 1926.27727413 C301.25335425 1928.60818401 298.92177823 1930.94293956 296.58984375 1933.27734375 C295.73237045 1934.13279282 294.87489716 1934.98824188 293.99143982 1935.86961365 C289.66973716 1940.2080411 285.48778873 1944.60428435 281.51454163 1949.26527405 C278.49995663 1952.71811994 275.17322143 1955.86748955 271.89453125 1959.06640625 C268.36342177 1962.54621632 265.07109852 1966.1653331 261.83007812 1969.91601562 C258.00139096 1974.27589738 253.95850907 1978.44018874 249.9609375 1982.64453125 C246.07740833 1986.74547807 242.29031689 1990.90695603 238.58984375 1995.17382812 C236.43235876 1997.65202034 234.21887075 2000.07675958 232 2002.5 C224.3493498 2010.89733528 216.96966083 2019.51836869 209.58496094 2028.14892578 C208.03988485 2029.95341852 206.49297021 2031.75631496 204.9453125 2033.55859375 C191.87842315 2048.7229585 191.87842315 2048.7229585 179.21484375 2064.22265625 C176.95247576 2067.05959388 174.66426933 2069.87396038 172.37084961 2072.68579102 C166.32276731 2080.10225741 160.3504358 2087.57125795 154.46728516 2095.11914062 C152.89144228 2097.13915619 151.31099221 2099.15552 149.73046875 2101.171875 C131.59342717 2124.35198673 114.11892543 2148.05964017 97 2172 C96.50193848 2172.69416016 96.00387695 2173.38832031 95.49072266 2174.10351562 C83.21939024 2191.25227395 71.67152552 2208.90233527 60.01123047 2226.46850586 C57.64459829 2230.03262614 55.26981314 2233.59120273 52.89175415 2237.14770508 C48.65085506 2243.49285778 44.46259187 2249.86724016 40.375 2256.3125 C39.79435791 2257.22708984 39.21371582 2258.14167969 38.61547852 2259.08398438 C28.16833489 2275.59072107 17.87712866 2292.1996305 8.15991211 2309.1484375 C7.42333374 2310.416875 7.42333374 2310.416875 6.671875 2311.7109375 C6.2500293 2312.44618652 5.82818359 2313.18143555 5.39355469 2313.93896484 C4 2316 4 2316 0 2320 C0 1554.4 0 788.8 0 0 Z " fill="#424241" transform="translate(3504,2700)"/>
<path d="M0 0 C0 274.89 0 549.78 0 833 C-13.86 838.445 -13.86 838.445 -28 844 C-36.37708338 847.59622266 -44.70558329 851.22734641 -53 855 C-54.15693359 855.52432617 -55.31386719 856.04865234 -56.50585938 856.58886719 C-83.54388204 868.88746267 -109.93790009 882.2077203 -135.43554688 897.47167969 C-137.7753797 898.86613451 -140.12554853 900.23955784 -142.484375 901.6015625 C-160.86431594 912.22693106 -178.5837746 923.87022826 -196 936 C-196.70398926 936.48645996 -197.40797852 936.97291992 -198.13330078 937.47412109 C-210.37973765 945.93701285 -222.22327185 954.89772572 -234 964 C-234.68787598 964.53044922 -235.37575195 965.06089844 -236.08447266 965.60742188 C-243.520863 971.35207633 -250.77162445 977.27709196 -257.9140625 983.3828125 C-260.75605565 985.80691756 -263.65290065 988.15731399 -266.5625 990.5 C-271.63751471 994.62807319 -276.44015416 999.00345591 -281.234375 1003.44921875 C-283.44055947 1005.48401883 -285.66632261 1007.47646238 -287.9375 1009.4375 C-299.56967631 1019.56218162 -310.517888 1030.35932501 -321.40429688 1041.27392578 C-323.88818449 1043.76321315 -326.37742683 1046.24705702 -328.8671875 1048.73046875 C-330.47167518 1050.33561669 -332.07585292 1051.9410745 -333.6796875 1053.546875 C-334.41210663 1054.2772699 -335.14452576 1055.00766479 -335.8991394 1055.76019287 C-339.92027917 1059.7994848 -343.77528424 1063.92925938 -347.49041748 1068.25230408 C-349.72070057 1070.83437999 -352.04946187 1073.31586372 -354.375 1075.8125 C-358.62806216 1080.41525838 -362.64233782 1085.15746288 -366.5703125 1090.04296875 C-368.86035173 1092.83004222 -371.21360171 1095.54219233 -373.59790039 1098.24804688 C-379.95790602 1105.4736599 -385.89521702 1112.93215953 -391.68359375 1120.62109375 C-393.91166284 1123.57972069 -396.17407424 1126.50597519 -398.47265625 1129.41015625 C-405.74887014 1138.60954961 -412.55919665 1148.00877656 -419.109375 1157.73828125 C-421.37096103 1161.09482015 -423.70798738 1164.37775337 -426.125 1167.625 C-431.43313437 1174.85333266 -436.19435798 1182.4331051 -441 1190 C-441.84159668 1191.31726074 -441.84159668 1191.31726074 -442.70019531 1192.66113281 C-487.94405912 1263.57386272 -523.35924548 1340.70663628 -584 1675 C-849.65 1675 -1115.3 1675 -1389 1675 C-1389 1655.64649463 -1388.89094284 1636.38945589 -1388.1875 1617.0625 C-1388.1433194 1615.8223111 -1388.09913879 1614.58212219 -1388.05361938 1613.30435181 C-1384.08060098 1503.12474212 -1369.81984776 1393.51677073 -1236.89355469 968.97137451 C-1236.06235343 967.13756512 -1235.23605475 965.30153574 -1234.41015625 963.46533203 C-1226.18916778 945.22701573 -1217.26825255 927.33169125 -1208.33904648 909.4331131 C-1207.39156132 907.53320888 -1206.44526956 905.63271421 -1205.49917603 903.7321167 C-1198.03646927 888.74977344 -1190.37907003 873.90052557 -1182.25543213 859.26385498 C-1181.13636399 857.24589804 -1180.02447785 855.224303 -1178.91748047 853.19970703 C-1170.25906981 837.37232877 -1161.25351664 821.77504797 -1151.97753906 806.30224609 C-1150.02729474 803.04557885 -1148.08679961 799.78328184 -1146.1484375 796.51953125 C-1138.01347241 782.84981344 -1129.63297132 769.36043367 -1121 756 C-1120.42443359 755.10845215 -1119.84886719 754.2169043 -1119.25585938 753.29833984 C-1096.04307766 717.37844895 -1071.74107578 682.20987358 -1045.72558594 648.26025391 C-1043.58749371 645.45967979 -1041.47841203 642.63920427 -1039.375 639.8125 C-1029.69939441 626.88103474 -1019.66536576 614.23404374 -1009.42822266 601.74414062 C-1008.13995352 600.17091076 -1006.85677275 598.59351752 -1005.57421875 597.015625 C-1001.1422901 591.56821003 -996.63744717 586.18846641 -992.08764648 580.83959961 C-989.15691459 577.38821312 -986.28270769 573.8976381 -983.4375 570.375 C-979.60630068 565.66282971 -975.55887805 561.19235996 -971.4453125 556.7265625 C-969.1559062 554.1738379 -967.00762128 551.55902146 -964.875 548.875 C-960.16469794 543.02917869 -955.03002556 537.61642635 -949.84716797 532.18896484 C-946.04624891 528.20432689 -942.35757852 524.15406179 -938.75048828 519.9934082 C-935.74398206 516.56968111 -932.62191299 513.25573948 -929.5 509.9375 C-928.87480469 509.26912109 -928.24960938 508.60074219 -927.60546875 507.91210938 C-924.61006526 504.72135349 -921.58730581 501.57460476 -918.46875 498.50390625 C-916.15860911 496.2147369 -913.99061132 493.86439981 -911.88256836 491.38867188 C-907.60261797 486.47176412 -903.02341708 481.87971409 -898.41015625 477.27734375 C-897.50680038 476.37303116 -896.60344452 475.46871857 -895.67271423 474.53700256 C-893.77203932 472.63565057 -891.87040392 470.73532447 -889.96704102 468.83666992 C-887.54881608 466.42414139 -885.13511042 464.00714919 -882.72272587 461.58878231 C-880.39181599 459.25335425 -878.05706044 456.92177823 -875.72265625 454.58984375 C-874.86720718 453.73237045 -874.01175812 452.87489716 -873.13038635 451.99143982 C-868.77782672 447.65565946 -864.36535632 443.46124051 -859.69200134 439.47181702 C-857.15992838 437.26924898 -854.84479328 434.90129433 -852.5 432.5 C-848.91078381 428.86226429 -845.24670527 425.39130016 -841.359375 422.07421875 C-838.00318739 419.12366309 -834.75802378 416.05814746 -831.5 413 C-827.0207185 408.80016092 -822.5314415 404.63304452 -817.875 400.62890625 C-815.61248819 398.66334911 -813.40309317 396.64326691 -811.1875 394.625 C-806.81714316 390.67628555 -802.29696921 386.9537279 -797.71875 383.25 C-795.07852271 381.06498431 -792.5327028 378.80828609 -790 376.5 C-785.35120107 372.27315778 -780.53714159 368.29517708 -775.65332031 364.34423828 C-773.08475786 362.25585894 -770.53341297 360.14672894 -767.98046875 358.03930664 C-765.04934177 355.62013663 -762.11426613 353.2057857 -759.17871094 350.79199219 C-757.7620371 349.62677636 -756.34598685 348.46080181 -754.93066406 347.29394531 C-747.13143272 340.86949374 -739.24880315 334.60654814 -731.13378906 328.58496094 C-726.09164127 324.83943533 -721.13089021 320.99966509 -716.1875 317.125 C-706.93227799 309.88880896 -697.49656278 302.91510838 -688 296 C-687.26845703 295.46552246 -686.53691406 294.93104492 -685.78320312 294.38037109 C-651.03065774 269.00289467 -615.12512342 242.94476425 -577.23266602 222.43139648 C-572.53996653 219.88695569 -567.99934956 217.18391789 -563.5 214.3125 C-552.23569494 207.14600214 -540.59327348 200.61483267 -529 194 C-528.01016113 193.43345703 -527.02032227 192.86691406 -526.00048828 192.28320312 C-502.00641243 178.5583143 -477.62380775 165.55734145 -453 153 C-452.29556763 152.64059326 -451.59113525 152.28118652 -450.86535645 151.91088867 C-430.05139962 141.30146205 -409.11539975 131.07678196 -387.77082825 121.57702637 C-383.51704564 119.68338676 -379.27820703 117.75989499 -375.046875 115.81640625 C-342.09782056 100.74033786 -308.35814972 87.36185794 -274.35388184 74.86535645 C-271.95937522 73.98506513 -269.56611505 73.10143811 -267.17285156 72.21777344 C-223.28437883 56.049354 -178.72157082 41.96694577 -133.58953857 29.70452881 C-131.09140882 29.02486935 -128.59461217 28.34052126 -126.09814453 27.65478516 C-91.99075938 18.30466849 -57.49889585 10.49476275 -22.875 3.3125 C-22.04944611 3.13974548 -21.22389221 2.96699097 -20.37332153 2.78900146 C-18.06011762 2.30691503 -15.74533763 1.83345921 -13.4296875 1.36328125 C-12.76008499 1.2232518 -12.09048248 1.08322235 -11.40058899 0.93894958 C-7.41785189 0.14466543 -4.15443016 0 0 0 Z " fill="#424241" transform="translate(4893,4338)"/>
<path d="M0 0 C499.29 0 998.58 0 1513 0 C1513 265.65 1513 531.3 1513 805 C1013.71 805 514.42 805 0 805 C0 539.35 0 273.7 0 0 Z " fill="#424241" transform="translate(5160,2700)"/>
<path d="M0 0 C457.71 0 915.42 0 1387 0 C1387 265.65 1387 531.3 1387 805 C929.29 805 471.58 805 0 805 C0 539.35 0 273.7 0 0 Z " fill="#424241" transform="translate(3506,6912)"/>
<path d="M0 0 C0.99 0.495 0.99 0.495 2 1 C-24.4 27.4 -50.8 53.8 -78 81 C-78.66 80.67 -79.32 80.34 -80 80 C-78.82244141 78.83984375 -78.82244141 78.83984375 -77.62109375 77.65625 C-76.55975756 76.60430616 -75.49856757 75.5522148 -74.4375 74.5 C-73.66696289 73.74203125 -73.66696289 73.74203125 -72.88085938 72.96875 C-70.09701492 70.2021965 -67.43985548 67.3812562 -64.89257812 64.39477539 C-60.60764162 59.47758437 -56.02590541 54.88219655 -51.41015625 50.27734375 C-50.50680038 49.37303116 -49.60344452 48.46871857 -48.67271423 47.53700256 C-46.77203932 45.63565057 -44.87040392 43.73532447 -42.96704102 41.83666992 C-40.54881608 39.42414139 -38.13511042 37.00714919 -35.72272587 34.58878231 C-33.39181599 32.25335425 -31.05706044 29.92177823 -28.72265625 27.58984375 C-27.86720718 26.73237045 -27.01175812 25.87489716 -26.13038635 24.99143982 C-21.78651002 20.66430929 -17.38376333 16.47701414 -12.71946716 12.49584961 C-10.0177767 10.14551532 -7.50780191 7.61621941 -5 5.0625 C-4.26716797 4.32290039 -4.26716797 4.32290039 -3.51953125 3.56835938 C-2.34396475 2.38126771 -1.17161174 1.19099502 0 0 Z " fill="#7E6735" transform="translate(4046,4765)"/>
</svg>
